<svg width="99" height="17" viewBox="0 0 99 17" fill="none" xmlns="http://www.w3.org/2000/svg">
<path d="M7.56 14L4.508 9.282L6.342 8.176L10.136 14H7.56ZM1.19 14V4.2H3.444V14H1.19ZM2.786 10.052V8.162H6.202V10.052H2.786ZM6.552 9.352L4.466 9.1L7.644 4.2H10.038L6.552 9.352ZM16.8475 14.168C16.0728 14.168 15.3541 14.042 14.6915 13.79C14.0381 13.538 13.4688 13.1833 12.9835 12.726C12.5075 12.2687 12.1341 11.732 11.8635 11.116C11.6021 10.5 11.4715 9.828 11.4715 9.1C11.4715 8.372 11.6021 7.7 11.8635 7.084C12.1341 6.468 12.5121 5.93133 12.9975 5.474C13.4828 5.01667 14.0521 4.662 14.7055 4.41C15.3588 4.158 16.0681 4.032 16.8335 4.032C17.6081 4.032 18.3175 4.158 18.9615 4.41C19.6148 4.662 20.1795 5.01667 20.6555 5.474C21.1408 5.93133 21.5188 6.468 21.7895 7.084C22.0601 7.69067 22.1955 8.36267 22.1955 9.1C22.1955 9.828 22.0601 10.5047 21.7895 11.13C21.5188 11.746 21.1408 12.2827 20.6555 12.74C20.1795 13.188 19.6148 13.538 18.9615 13.79C18.3175 14.042 17.6128 14.168 16.8475 14.168ZM16.8335 12.236C17.2721 12.236 17.6735 12.1613 18.0375 12.012C18.4108 11.8627 18.7375 11.648 19.0175 11.368C19.2975 11.088 19.5121 10.7567 19.6615 10.374C19.8201 9.99133 19.8995 9.56667 19.8995 9.1C19.8995 8.63333 19.8201 8.20867 19.6615 7.826C19.5121 7.44333 19.2975 7.112 19.0175 6.832C18.7468 6.552 18.4248 6.33733 18.0515 6.188C17.6781 6.03867 17.2721 5.964 16.8335 5.964C16.3948 5.964 15.9888 6.03867 15.6155 6.188C15.2515 6.33733 14.9295 6.552 14.6495 6.832C14.3695 7.112 14.1501 7.44333 13.9915 7.826C13.8421 8.20867 13.7675 8.63333 13.7675 9.1C13.7675 9.55733 13.8421 9.982 13.9915 10.374C14.1501 10.7567 14.3648 11.088 14.6355 11.368C14.9155 11.648 15.2421 11.8627 15.6155 12.012C15.9888 12.1613 16.3948 12.236 16.8335 12.236ZM24.9426 14V4.2H26.8186L30.9906 11.116H29.9966L34.0986 4.2H35.9746L35.9886 14H33.8606L33.8466 7.462H34.2526L30.9626 12.964H29.9546L26.5946 7.462H27.0706V14H24.9426ZM38.3171 14L42.6851 4.2H44.9251L49.3071 14H46.9271L43.3431 5.348H44.2391L40.6411 14H38.3171ZM40.5011 11.9L41.1031 10.178H46.1431L46.7591 11.9H40.5011ZM58.3267 4.2H60.5947V14H58.3267V4.2ZM53.8747 14H51.6067V4.2H53.8747V14ZM58.4947 9.982H53.7067V8.064H58.4947V9.982ZM70.4777 12.992V6.048H67.1177L67.0757 7.476C67.0477 8.08267 67.0057 8.65667 66.9497 9.198C66.903 9.73933 66.8283 10.234 66.7257 10.682C66.623 11.1207 66.4877 11.494 66.3197 11.802C66.161 12.11 65.9603 12.3293 65.7177 12.46L63.2957 12.152C63.6317 12.1613 63.907 12.0447 64.1217 11.802C64.3457 11.5593 64.523 11.2187 64.6537 10.78C64.7843 10.332 64.8777 9.80933 64.9337 9.212C64.999 8.61467 65.0457 7.966 65.0737 7.266L65.1857 4.2H72.7177V12.992H70.4777ZM62.9737 16.03L62.9877 12.152H74.0897V16.03H71.9897V14H65.0737V16.03H62.9737ZM75.5651 14L79.9331 4.2H82.1731L86.5551 14H84.1751L80.5911 5.348H81.4871L77.8891 14H75.5651ZM77.7491 11.9L78.3511 10.178H83.3911L84.0071 11.9H77.7491Z" fill="#24A3FF"/>
<path d="M90.5 4L95 8.5L90.5 13" stroke="#24A3FF" stroke-width="2"/>
</svg>
