<svg width="108" height="44" viewBox="0 0 108 44" fill="none" xmlns="http://www.w3.org/2000/svg">
<g clip-path="url(#clip0_22715_6154)">
<path d="M17.232 24.332V23.774C17.232 23.0935 16.6805 22.542 16.0005 22.542C15.32 22.542 14.7685 23.0935 14.7685 23.774V24.332C14.7685 25.0125 15.32 25.564 16.0005 25.564C16.68 25.564 17.232 25.0125 17.232 24.332Z" fill="#F0145A"/>
<path d="M18.077 25.0136C17.804 25.9071 16.9815 26.5631 16.0005 26.5631C15.019 26.5631 14.1965 25.9071 13.9235 25.0136H5.43904C4.90354 25.0136 4.39754 24.8891 3.94354 24.6731V30.3066C3.94354 31.4066 4.84354 32.3066 5.94354 32.3066H26.0565C27.1565 32.3066 28.0565 31.4066 28.0565 30.3066V24.6736C27.602 24.8896 27.0965 25.0141 26.561 25.0141H18.077V25.0136Z" fill="#F0145A"/>
<path d="M26.4775 14.8976H21.677C21.387 13.0846 19.8165 11.6936 17.923 11.6936H14.0765C12.183 11.6936 10.613 13.0846 10.3225 14.8976H5.52253C4.37653 14.8976 3.43903 15.7976 3.43903 16.8976V21.5141C3.43903 22.6186 4.33453 23.5141 5.43903 23.5141H13.829C13.8575 22.9386 14.1045 22.4216 14.495 22.0476C14.507 22.0361 14.521 22.0271 14.5335 22.0161C14.62 21.9366 14.71 21.8616 14.8085 21.7966C14.8435 21.7731 14.8835 21.7571 14.92 21.7361C15.001 21.6896 15.081 21.6411 15.1685 21.6051C15.237 21.5766 15.311 21.5601 15.383 21.5386C15.445 21.5201 15.504 21.4956 15.5685 21.4826C15.708 21.4541 15.8525 21.4391 16 21.4391C16.148 21.4391 16.292 21.4546 16.4315 21.4826C16.4955 21.4956 16.5545 21.5201 16.6165 21.5386C16.6885 21.5601 16.7625 21.5766 16.831 21.6056C16.918 21.6416 16.9975 21.6896 17.0785 21.7361C17.1155 21.7576 17.1555 21.7736 17.191 21.7971C17.2895 21.8616 17.379 21.9366 17.4655 22.0161C17.478 22.0276 17.4925 22.0366 17.5045 22.0486C17.8955 22.4226 18.142 22.9396 18.1705 23.5151H26.5605C27.665 23.5151 28.5605 22.6196 28.5605 21.5151V16.8986C28.561 15.7976 27.6235 14.8976 26.4775 14.8976ZM12.248 14.8976C12.503 14.1271 13.2215 13.5656 14.0765 13.5656H17.923C18.778 13.5656 19.4965 14.1271 19.7515 14.8976H12.248Z" fill="#F0145A"/>
<path d="M49.8787 35.432C48.1267 35.432 46.3867 35.204 44.6587 34.748C42.9307 34.268 41.4667 33.596 40.2667 32.732L42.5347 28.268C43.4947 28.964 44.6107 29.516 45.8827 29.924C47.1547 30.332 48.4387 30.536 49.7347 30.536C51.1987 30.536 52.3507 30.248 53.1907 29.672C54.0307 29.096 54.4507 28.304 54.4507 27.296C54.4507 26.336 54.0787 25.58 53.3347 25.028C52.5907 24.476 51.3907 24.2 49.7347 24.2H47.0707V20.348L54.0907 12.392L54.7387 14.48H41.5267V9.8H59.1667V13.58L52.1827 21.536L49.2307 19.844H50.9227C54.0187 19.844 56.3587 20.54 57.9427 21.932C59.5267 23.324 60.3187 25.112 60.3187 27.296C60.3187 28.712 59.9467 30.044 59.2027 31.292C58.4587 32.516 57.3187 33.512 55.7827 34.28C54.2467 35.048 52.2787 35.432 49.8787 35.432ZM73.8114 35.432C71.7474 35.432 69.8994 34.928 68.2674 33.92C66.6354 32.888 65.3514 31.4 64.4154 29.456C63.4794 27.512 63.0114 25.16 63.0114 22.4C63.0114 19.64 63.4794 17.288 64.4154 15.344C65.3514 13.4 66.6354 11.924 68.2674 10.916C69.8994 9.884 71.7474 9.368 73.8114 9.368C75.8994 9.368 77.7474 9.884 79.3554 10.916C80.9874 11.924 82.2714 13.4 83.2074 15.344C84.1434 17.288 84.6114 19.64 84.6114 22.4C84.6114 25.16 84.1434 27.512 83.2074 29.456C82.2714 31.4 80.9874 32.888 79.3554 33.92C77.7474 34.928 75.8994 35.432 73.8114 35.432ZM73.8114 30.5C74.7954 30.5 75.6474 30.224 76.3674 29.672C77.1114 29.12 77.6874 28.244 78.0954 27.044C78.5274 25.844 78.7434 24.296 78.7434 22.4C78.7434 20.504 78.5274 18.956 78.0954 17.756C77.6874 16.556 77.1114 15.68 76.3674 15.128C75.6474 14.576 74.7954 14.3 73.8114 14.3C72.8514 14.3 71.9994 14.576 71.2554 15.128C70.5354 15.68 69.9594 16.556 69.5274 17.756C69.1194 18.956 68.9154 20.504 68.9154 22.4C68.9154 24.296 69.1194 25.844 69.5274 27.044C69.9594 28.244 70.5354 29.12 71.2554 29.672C71.9994 30.224 72.8514 30.5 73.8114 30.5ZM94.6065 30.716V14.084H99.2505V30.716H94.6065ZM88.3785 24.596V20.204H105.514V24.596H88.3785Z" fill="url(#paint0_linear_22715_6154)"/>
</g>
<defs>
<linearGradient id="paint0_linear_22715_6154" x1="40.5312" y1="12.32" x2="108.08" y2="12.5557" gradientUnits="userSpaceOnUse">
<stop stop-color="#F0145A"/>
<stop offset="1" stop-color="#EF8080"/>
</linearGradient>
<clipPath id="clip0_22715_6154">
<rect width="108" height="44" fill="white"/>
</clipPath>
</defs>
</svg>
